<?xml version="1.0" encoding="UTF-8"?>
<!-- Generator: Adobe Illustrator 16.0.0, SVG Export Plug-In . SVG Version: 6.00 Build 0)  -->
<!DOCTYPE svg PUBLIC "-//W3C//DTD SVG 1.1//EN" "http://www.w3.org/Graphics/SVG/1.1/DTD/svg11.dtd">
<svg version="1.1" id="Слой_1" xmlns="http://www.w3.org/2000/svg" xmlns:xlink="http://www.w3.org/1999/xlink" x="0px" y="0px" width="30px" height="30px" viewBox="0 0 30 30" enable-background="new 0 0 30 30" xml:space="preserve">
<path fill-rule="evenodd" clip-rule="evenodd" fill="#1CA385" d="M15.128,10.706c2.55,0,4.618,2.067,4.618,4.619  c0,2.552-2.067,4.619-4.618,4.619c-2.548,0-4.613-2.066-4.613-4.619C10.516,12.773,12.581,10.706,15.128,10.706z"/>
<g>
	<path fill-rule="evenodd" clip-rule="evenodd" fill="#1CA385" d="M15.098,23.086c-4.265,0-7.722-3.459-7.722-7.729   c0-0.805,0.123-1.581,0.351-2.309H0.043v11.726c0,2.869,2.324,5.195,5.191,5.195h19.531c2.866,0,5.191-2.326,5.191-5.195V13.048   h-7.49c0.229,0.728,0.352,1.504,0.352,2.309C22.818,19.627,19.362,23.086,15.098,23.086z"/>
	<path fill-rule="evenodd" clip-rule="evenodd" fill="#1CA385" d="M15.098,7.629c2.398,0,4.545,1.097,5.961,2.814h8.898V5.226   c0-2.869-2.325-5.195-5.191-5.195H5.235c-2.867,0-5.191,2.326-5.191,5.195v5.217h9.093C10.553,8.726,12.696,7.629,15.098,7.629z    M21.845,4.239c0-0.423,0.345-0.765,0.768-0.765h2.878c0.423,0,0.768,0.342,0.768,0.765v2.883c0,0.423-0.345,0.767-0.768,0.767   h-2.878c-0.423,0-0.768-0.344-0.768-0.767V4.239z"/>
</g>
</svg>