<?xml version="1.0" standalone="no"?>
<!DOCTYPE svg PUBLIC "-//W3C//DTD SVG 20010904//EN"
 "http://www.w3.org/TR/2001/REC-SVG-20010904/DTD/svg10.dtd">
<svg version="1.0" xmlns="http://www.w3.org/2000/svg"
 width="1280.000000pt" height="537.000000pt" viewBox="0 0 1280.000000 537.000000"
 preserveAspectRatio="xMidYMid meet">
<metadata>
Created by potrace 1.15, written by Peter Selinger 2001-2017
</metadata>
<g transform="translate(0.000000,537.000000) scale(0.100000,-0.100000)"
fill="#000000" stroke="none">
<path d="M6495 5250 c-231 -49 -430 -92 -442 -95 l-23 -5 0 -365 c0 -201 2
-365 4 -365 3 0 202 43 442 95 241 52 442 95 446 95 4 0 8 164 8 365 0 201 -3
365 -7 364 -5 0 -197 -41 -428 -89z"/>
<path d="M3010 4865 c-162 -36 -355 -77 -428 -92 l-132 -27 3 -1501 3 -1500
23 -80 c44 -155 154 -345 245 -423 123 -105 256 -176 396 -212 210 -54 581
-30 793 52 l77 29 0 366 c0 344 -1 365 -17 358 -134 -52 -356 -65 -455 -26
-100 39 -165 124 -187 246 -7 38 -11 282 -11 702 l0 643 335 0 335 0 0 380 0
380 -335 0 -336 0 3 385 c2 252 0 385 -7 384 -5 0 -143 -29 -305 -64z"/>
<path d="M1025 4214 c-290 -44 -467 -109 -635 -234 -188 -140 -309 -346 -346
-590 -45 -304 23 -546 207 -729 131 -131 290 -216 654 -351 228 -85 349 -142
398 -188 49 -46 70 -98 65 -164 -6 -77 -42 -123 -124 -158 -54 -23 -71 -25
-214 -25 -124 0 -178 5 -270 24 -197 40 -487 144 -637 228 -23 12 -44 23 -48
23 -3 0 -4 -192 -3 -427 l3 -426 120 -45 c149 -55 302 -95 470 -123 107 -19
171 -23 360 -23 147 -1 259 4 310 12 568 94 903 410 945 890 29 328 -89 610
-326 785 -144 107 -271 166 -589 276 -212 74 -312 120 -365 167 -50 45 -64 81
-58 151 5 52 9 60 47 94 54 48 116 64 256 63 275 -1 577 -80 858 -222 4 -2 6
187 5 419 l-3 423 -93 32 c-106 37 -264 76 -402 100 -92 15 -514 28 -585 18z"/>
<path d="M8625 4214 c-11 -2 -45 -9 -75 -15 -132 -26 -300 -108 -409 -199
l-58 -48 -23 109 -22 109 -394 0 -394 0 0 -2065 c0 -1397 3 -2065 10 -2065 6
0 115 22 243 49 127 27 323 69 434 92 l201 43 4 60 c2 34 5 254 7 491 1 236 4
431 6 433 2 2 31 -15 66 -38 292 -199 682 -222 1027 -60 320 150 560 478 666
910 43 175 57 293 63 530 6 240 -2 356 -38 540 -93 471 -349 847 -695 1018
-169 83 -250 103 -444 107 -85 2 -164 2 -175 -1z m30 -798 c189 -50 335 -224
403 -481 100 -377 13 -820 -201 -1022 -60 -57 -106 -83 -186 -107 -153 -45
-387 10 -488 116 l-31 33 -3 654 -4 654 45 39 c119 103 322 153 465 114z"/>
<path d="M11240 4200 c-439 -78 -788 -380 -971 -842 -93 -234 -133 -459 -132
-753 0 -366 54 -625 186 -890 87 -176 247 -361 401 -464 82 -56 245 -137 331
-166 418 -140 1037 -95 1448 105 l87 43 0 359 c0 197 -2 358 -4 358 -2 0 -36
-15 -77 -34 -236 -107 -481 -158 -769 -159 -196 0 -285 16 -409 74 -98 46
-191 133 -233 219 -29 60 -58 163 -58 204 l0 26 859 0 859 0 7 108 c10 140 -1
440 -20 572 -91 618 -396 1047 -850 1199 -187 62 -442 78 -655 41z m375 -727
c99 -34 191 -116 240 -213 35 -69 65 -189 65 -262 l0 -58 -450 0 c-383 0 -450
2 -450 14 0 54 26 182 49 241 90 232 329 354 546 278z"/>
<path d="M5465 4186 c-158 -37 -255 -101 -343 -224 l-31 -43 -10 38 c-5 21
-17 75 -27 121 l-17 82 -388 0 -389 0 0 -1550 0 -1550 450 0 450 0 0 1054 0
1054 62 58 c101 93 238 144 389 144 69 0 154 -11 202 -26 16 -5 17 17 15 408
l-3 413 -50 13 c-77 20 -240 24 -310 8z"/>
<path d="M6030 2610 l0 -1550 450 0 450 0 0 1550 0 1550 -450 0 -450 0 0
-1550z"/>
</g>
</svg>
