<?xml version="1.0" encoding="utf-8"?>
<!-- Generator: Adobe Illustrator 16.0.0, SVG Export Plug-In . SVG Version: 6.00 Build 0)  -->
<!DOCTYPE svg PUBLIC "-//W3C//DTD SVG 1.1//EN" "http://www.w3.org/Graphics/SVG/1.1/DTD/svg11.dtd">
<svg version="1.1" id="Layer_1" xmlns="http://www.w3.org/2000/svg" xmlns:xlink="http://www.w3.org/1999/xlink" x="0px" y="0px"
	 width="45px" height="45px" viewBox="0 0 45 45" enable-background="new 0 0 45 45" xml:space="preserve">
<path stroke="#000000" stroke-width="1.5" stroke-miterlimit="10" d="M9.734,38.422c-0.251,0.538-0.891,0.771-1.43,0.52l0,0
	c-0.539-0.251-0.771-0.892-0.52-1.43L22.376,6.221c0.25-0.539,0.892-0.771,1.429-0.521l0,0c0.539,0.251,0.771,0.891,0.521,1.43
	L9.734,38.422z"/>
<path stroke="#000000" stroke-width="1.5" stroke-miterlimit="10" d="M22.017,38.422c-0.25,0.538-0.891,0.771-1.429,0.52l0,0
	c-0.539-0.251-0.771-0.892-0.52-1.43L34.659,6.221c0.251-0.539,0.89-0.771,1.429-0.521l0,0c0.539,0.251,0.771,0.891,0.521,1.43
	L22.017,38.422z"/>
<path stroke="#000000" stroke-width="1.5" stroke-miterlimit="10" d="M42.391,18.469c0.594-0.001,1.075-0.484,1.073-1.078l0,0
	c0-0.594-0.482-1.074-1.077-1.073L7.861,16.376c-0.593,0-1.075,0.482-1.073,1.077l0,0c0,0.594,0.482,1.075,1.076,1.073
	L42.391,18.469z"/>
<path stroke="#000000" stroke-width="1.5" stroke-miterlimit="10" d="M37.769,28.265c0.595,0,1.075-0.483,1.073-1.077l0,0
	c-0.001-0.595-0.482-1.075-1.076-1.075L3.24,26.172c-0.595,0.002-1.076,0.483-1.074,1.077l0,0c0.001,0.595,0.483,1.075,1.077,1.073
	L37.769,28.265z"/>
</svg>
