<?xml version="1.0" encoding="UTF-8"?>
<!--Icons from directory ""-->
<!DOCTYPE svg PUBLIC "-//W3C//DTD SVG 1.1//EN" "http://www.w3.org/Graphics/SVG/1.1/DTD/svg11.dtd">
<svg xmlns="http://www.w3.org/2000/svg" xmlns:xlink="http://www.w3.org/1999/xlink" width="32px" height="1200px" viewBox="0 0 32 1200" x="0px" y="0px" xml:space="preserve">
    <symbol id="svg-round-plus">
        <path d="M199.995,0C89.716,0,0,89.72,0,200c0,110.279,89.716,200,199.995,200C310.277,400,400,310.279,400,200    C400,89.72,310.277,0,199.995,0z M199.995,373.77C104.182,373.77,26.23,295.816,26.23,200c0-95.817,77.951-173.77,173.765-173.77    c95.817,0,173.772,77.953,173.772,173.77C373.769,295.816,295.812,373.77,199.995,373.77z"/>
        <path d="M279.478,186.884h-66.363V120.52c0-7.243-5.872-13.115-13.115-13.115s-13.115,5.873-13.115,13.115v66.368h-66.361    c-7.242,0-13.115,5.873-13.115,13.115c0,7.243,5.873,13.115,13.115,13.115h66.358v66.362c0,7.242,5.872,13.114,13.115,13.114    c7.242,0,13.115-5.872,13.115-13.114v-66.365h66.367c7.241,0,13.114-5.873,13.114-13.115    C292.593,192.757,286.72,186.884,279.478,186.884z"/>
    </symbol>

    <symbol id="svg-user-2">
        <g id="svg-user-2-Page-1" stroke-width="1" fill="none" stroke="none" fill-rule="evenodd">
        <g id="svg-user-2-screen-1-2" transform="translate(-119.000000, -401.000000)" stroke-width="0.5" stroke="currentColor" fill="currentColor">
            <g id="svg-user-2-Group-8" transform="translate(118.000000, 402.000000)">
                <g id="svg-user-2-user-2" transform="translate(2.000000, 0.000000)">
                    <g id="svg-user-2-Layer_1">
                        <g id="svg-user-2-Group">
                            <path d="M7.14875133,7.95879281 C8.09676828,7.95879281 9.02250922,7.42159188 9.75544186,6.44614616 C10.4022379,5.58532399 10.7883688,4.5210099 10.7883688,3.5991069 C10.7883688,1.72485285 9.15561143,0.200012207 7.14875133,0.200012207 C5.14185166,0.200012207 3.50909424,1.72485285 3.50909424,3.5991069 C3.50909424,4.5210099 3.89522519,5.58532399 4.54202123,6.44614616 C5.27495387,7.42159188 6.2006948,7.95879281 7.14875133,7.95879281 Z M7.14875133,0.754284724 C8.82839523,0.754284724 10.1948691,2.03047872 10.1948691,3.5991069 C10.1948691,4.39929165 9.84031233,5.36819696 9.26960295,6.12777202 C8.65992043,6.93915308 7.88690677,7.40452029 7.14871176,7.40452029 C6.41051675,7.40452029 5.63750309,6.93915308 5.02782057,6.12777202 C4.45707163,5.36819696 4.10255444,4.39929165 4.10255444,3.5991069 C4.102594,2.03047872 5.46906786,0.754284724 7.14875133,0.754284724 Z" id="svg-user-2-Shape"/>
                            <g id="svg-user-2-Group-6" transform="translate(0.000000, 8.000000)">
                                <path d="M4.29381346,0.0874089431 C5.08903745,0.806437085 6.00665437,1.18651704 6.94733275,1.18651704 C7.88814316,1.18651704 8.80554003,0.80647698 9.60036793,0.0874488382 C9.69921529,-0.00199582106 9.84937879,-0.0253344141 9.97542459,0.029082408 C11.1620771,0.541254814 12.1663945,1.34230714 12.8797592,2.34566717 C13.6126204,3.37639518 14,4.57224873 14,5.80392802 C14,5.89353226 13.9606547,5.97404043 13.8916464,6.03077117 C11.9869201,7.59661124 9.52066509,8 6.94728874,8 C6.81138461,8 6.67402814,7.9975664 6.53900422,7.99281889 C6.35684516,7.98639579 6.21491161,7.84736161 6.22199728,7.68223608 C6.22908296,7.51711055 6.38289932,7.38840918 6.56461828,7.39487217 C6.69110418,7.39930052 6.81983461,7.40157454 6.94728874,7.40157454 C9.3071266,7.40157454 11.5708457,7.08583515 13.3383036,5.6764235 C13.3126455,4.60504245 12.963555,3.5681307 12.324876,2.66981429 C11.7190288,1.81769633 10.8818629,1.12651492 9.89426941,0.660820222 C9.01203685,1.39712291 7.99764104,1.78486272 6.94728874,1.78486272 C5.89711248,1.78486272 4.88254063,1.39708302 4,0.660820222 C4,0.660820222 4.19492208,-0.001916031 4.29381346,0.0874089431 Z" id="svg-user-2-Path"/>
                                <path d="M0.293813458,0.0874089431 C1.08903745,0.806437085 2.00665437,1.18651704 2.94733275,1.18651704 C3.88814316,1.18651704 4.80554003,0.80647698 5.60036793,0.0874488382 C5.69921529,-0.00199582106 5.84937879,-0.0253344141 5.97542459,0.029082408 C7.16207712,0.541254814 8.16639454,1.34230714 8.87975918,2.34566717 C9.61262042,3.37639518 10,4.57224873 10,5.80392802 C10,5.89353226 9.9606547,5.97404043 9.89164639,6.03077117 C7.98692011,7.59661124 5.52066509,8 2.94728874,8 C2.81138461,8 2.67402814,7.9975664 2.53900422,7.99281889 C2.35684516,7.98639579 2.21491161,7.84736161 2.22199728,7.68223608 C2.22908296,7.51711055 2.38289932,7.38840918 2.56461828,7.39487217 C2.69110418,7.39930052 2.81983461,7.40157454 2.94728874,7.40157454 C5.3071266,7.40157454 7.57084575,7.08583515 9.33830357,5.6764235 C9.31264551,4.60504245 8.96355498,3.5681307 8.324876,2.66981429 C7.71902878,1.81769633 6.88186287,1.12651492 5.89426941,0.660820222 C5.01203685,1.39712291 3.99764104,1.78486272 2.94728874,1.78486272 C1.89711248,1.78486272 0.882540633,1.39708302 -6.91002811e-13,0.660820222 C-9.13047415e-13,0.660820222 0.19492208,-0.001916031 0.293813458,0.0874089431 Z" id="svg-user-2-Path" transform="translate(5.000000, 4.000000) scale(-1, 1) translate(-5.000000, -4.000000) "/>
                            </g>
                        </g>
                    </g>
                </g>
            </g>
        </g>
    </g>
    </symbol>

    <symbol id="svg-tick-1">
        <g transform="translate(0.000000,264.000000) scale(0.100000,-0.100000)">
            <path d="M2615 2238 c-203 -128 -409 -299 -640 -532 -235 -237 -427 -474 -580 -715 -32 -50 -59 -91 -60 -91 -2 0 -28 51 -58 114 -69 143 -127 229 -178 263 -33 22 -46 25 -84 20 -62 -9 -132 -47 -199 -108 l-56 -51 40 -20 c75 -38 154             -138 230 -292 55 -115 140 -314 174 -409 5 -16 13 -13 63 25 32 24 95 70 141 102 71 50 87 66 114 119 247 493 785 1191 1143 1485 44 36 84 69 89 73 10 9 -31 69 -47 68 -7 0 -48 -23 -92 -51z"/>
        </g>
    </symbol>

    <symbol id="svg-close-1">
        <g>
           <path style="fill-rule:evenodd;clip-rule:evenodd;" d="M131.804,106.491l75.936-75.936c6.99-6.99,6.99-18.323,0-25.312   c-6.99-6.99-18.322-6.99-25.312,0l-75.937,75.937L30.554,5.242c-6.99-6.99-18.322-6.99-25.312,0c-6.989,6.99-6.989,18.323,0,25.312   l75.937,75.936L5.242,182.427c-6.989,6.99-6.989,18.323,0,25.312c6.99,6.99,18.322,6.99,25.312,0l75.937-75.937l75.937,75.937   c6.989,6.99,18.322,6.99,25.312,0c6.99-6.99,6.99-18.322,0-25.312L131.804,106.491z"/>
        </g>
    </symbol>

     <symbol id="svg-video-1">
        <g>
		<path class="st0" d="M12.1,19.7c-3.3,0-6.6-0.2-9.9-0.6c-0.4,0-0.7-0.3-0.8-0.7c-1.1-4.7-1.1-11.5,0-16.2c0.1-0.4,0.4-0.7,0.8-0.7    c6.5-0.8,13.2-0.8,19.7,0c0.4,0,0.7,0.3,0.8,0.7c1.1,4.7,1.1,11.5,0,16.2c-0.1,0.4-0.4,0.7-0.8,0.7C18.7,19.5,15.4,19.7,12.1,19.7    L12.1,19.7z"/>
	    </g>
	    <g>
		<path class="st0" d="M10.1,14.9c-0.8,0-1.3-0.6-1.3-1.5V7c0-0.8,0.6-1.5,1.3-1.5c0.3,0,0.5,0.1,0.8,0.2L16.5,9    c0.5,0.3,0.8,0.7,0.8,1.2c0,0.5-0.3,1-0.8,1.2l-5.6,3.3C10.7,14.9,10.4,14.9,10.1,14.9L10.1,14.9z"/>
	    </g>
    </symbol>

    <symbol id="svg-cover-1">
       <g><g>
		    <path class="st0" d="M13.5,10.1c-1.7,0-3.1-1.4-3.1-3.1c0-1.7,1.4-3.1,3.1-3.1c1.7,0,3.1,1.4,3.1,3.1 C16.6,8.7,15.2,10.1,13.5,10.1L13.5,10.1z"/>
	    </g></g>
        <polyline class="st0" points="0.8,13.9 6.1,8.5 12.2,14.6 17.8,10.8 23.5,15.4 "/>
        <path class="st0" d="M22.7,19H1.8C1.3,19,1,18.6,1,18.2V2c0-0.4,0.4-0.8,0.8-0.8l20.9,0c0.4,0,0.8,0.4,0.8,0.8v16.2 C23.5,18.6,23.1,19,22.7,19z"/>
    </symbol>

    <symbol id="svg-move-1">
        <g>
            <g><path class="st0" d="M11.5,3.9l2.2-2.2c0.4-0.4,1-0.4,1.4,0l2.2,2.2"/></g>
            <g><line class="st0" x1="14.4" y1="11.5" x2="14.4" y2="1.8"/></g>
        </g>
        <g>
            <g><path class="st0" d="M25.1,17.5l2.2-2.2c0.4-0.4,0.4-1,0-1.4l-2.2-2.2"/></g>
            <g><line class="st0" x1="17.5" y1="14.6" x2="27.2" y2="14.6"/></g>
        </g>
        <g>
            <g>
                <path class="st0" d="M17.2,25.4L15,27.6c-0.4,0.4-1,0.4-1.4,0l-2.2-2.2"/>
            </g>
            <g>
                <line class="st0" x1="14.3" y1="17.7" x2="14.3" y2="27.4"/>
            </g>
        </g>
        <g>
            <g>
                <path class="st0" d="M3.6,11.8L1.4,14c-0.4,0.4-0.4,1,0,1.4l2.2,2.2"/>
            </g>
            <g>
                <line class="st0" x1="11.3" y1="14.6" x2="1.6" y2="14.6"/>
            </g>
        </g>
    </symbol>

     <symbol id="svg-arrow-1">
       <g>
	      <path d="M225.923,354.706c-8.098,0-16.195-3.092-22.369-9.263L9.27,151.157c-12.359-12.359-12.359-32.397,0-44.751   c12.354-12.354,32.388-12.354,44.748,0l171.905,171.915l171.906-171.909c12.359-12.354,32.391-12.354,44.744,0   c12.365,12.354,12.365,32.392,0,44.751L248.292,345.449C242.115,351.621,234.018,354.706,225.923,354.706z"/>
       </g>
    </symbol>
    
    <symbol id="svg-custom-icon-1">
        <g fill="none" fill-rule="evenodd" opacity=".258">
            <path d="M20.45 4.267c-2.895 0-5.25 2.392-5.25 5.333v44.8c0 2.94 2.355 5.333 5.25 5.333h44.1c2.895 0 5.25-2.392 5.25-5.333V9.6c0-2.94-2.355-5.333-5.25-5.333h-44.1zM64.55 64h-44.1C15.239 64 11 59.694 11 54.4V9.6C11 4.306 15.239 0 20.45 0h44.1C69.761 0 74 4.306 74 9.6v44.8c0 5.294-4.239 9.6-9.45 9.6z" fill="#000"/>
            <path d="M2.064 64C.924 64 0 63.053 0 61.887 0 45.059 2.244 25 12.936 25c1.14 0 2.064.946 2.064 2.113 0 1.166-.924 2.113-2.064 2.113-5.432 0-8.807 12.515-8.807 32.661 0 1.166-.925 2.113-2.065 2.113" fill="#000"/>
        <g transform="translate(71 25)">
          <mask id="b" fill="#fff"><path d="M7.495 39.344h7.496V.091H0v39.253z"/></mask>
         <path d="M12.928 39.344c-1.139 0-2.063-.953-2.063-2.126 0-20.277-3.374-32.873-8.802-32.873C.923 4.345 0 3.392 0 2.218 0 1.043.923.091 2.063.091c10.685 0 12.928 20.19 12.928 37.127 0 1.173-.924 2.126-2.063 2.126" fill="#000" mask="url(#b)"/>
        </g>
            <path d="M49.143 29a2.142 2.142 0 0 1-1.515-3.658l10.714-10.714a2.143 2.143 0 1 1 3.03 3.03L50.658 28.372a2.134 2.134 0 0 1-1.515.628" fill="#000"/>
            <path d="M59.857 29a2.134 2.134 0 0 1-1.515-.628L47.628 17.658a2.142 2.142 0 1 1 3.03-3.03l10.714 10.714A2.142 2.142 0 0 1 59.857 29M26.143 29a2.142 2.142 0 0 1-1.515-3.658l10.714-10.714a2.143 2.143 0 1 1 3.03 3.03L27.658 28.372a2.134 2.134 0 0 1-1.515.628" fill="#000"/>
            <path d="M36.857 29a2.134 2.134 0 0 1-1.515-.628L24.628 17.658a2.142 2.142 0 1 1 3.03-3.03l10.714 10.714A2.142 2.142 0 0 1 36.857 29M58.882 43H27.118C25.948 43 25 41.88 25 40.5s.949-2.5 2.118-2.5h31.764C60.052 38 61 39.12 61 40.5s-.949 2.5-2.118 2.5" fill="#000"/>
        </g>
    </symbol>

    <symbol id="svg-single-post-1">
        <rect fill="none" stroke="#1ea385" stroke-miterlimit="10" class="cls-1" x="0.56" y="0.64" width="20" height="20" rx="2" ry="2"/>
        <rect fill="#1ea385" class="cls-2" x="4.72" y="4.79" width="11.69" height="11.69" rx="2.3" ry="2.3"/>
    </symbol>

     <symbol id="svg-gallery-post-1">
         <defs>
            <style>.cls-1{fill:none;stroke:#1ea385;stroke-miterlimit:10;}.cls-2{fill:#1ea385;}</style>
        </defs>
        <rect class="cls-1" x="0.68" y="0.54" width="15.58" height="15.74" rx="2" ry="2"/>
        <rect class="cls-2" x="4.09" y="3.98" width="8.71" height="8.8" rx="2" ry="2"/>
        <circle class="cls-2" cx="2.36" cy="20.77" r="1.25"/>
        <circle class="cls-2" cx="8.44" cy="20.77" r="1.25"/>
        <circle class="cls-2" cx="14.53" cy="20.77" r="1.25"/>
    </symbol>

     <symbol id="svg-multi-post-1">
        <defs>
            <style>.cls-1{fill:none;stroke:#1ea385;stroke-miterlimit:10;}.cls-2{fill:#1ea385;}</style>
        </defs>
        <rect class="cls-1" x="0.89" y="0.71" width="20" height="20" rx="2" ry="2"/>
        <rect class="cls-2" x="3.04" y="4.33" width="4.97" height="4.97"/>
        <line class="cls-1" x1="9.38" y1="4.85" x2="18.59" y2="4.85"/>
        <line class="cls-1" x1="9.38" y1="7.17" x2="15.39" y2="7.17"/>
        <rect class="cls-2" x="3.04" y="13.04" width="4.97" height="4.97"/>
        <line class="cls-1" x1="9.38" y1="13.57" x2="18.59" y2="13.57"/>
        <line class="cls-1" x1="9.38" y1="15.89" x2="15.39" y2="15.89"/>
    </symbol>

    <symbol id="svg-info-post-1">
        <defs>
           <style>.svg-info-post-10{fill:#AAAAAA;}.svg-info-post-11{fill:#FFFFFF;}</style>
        </defs>
        <g><circle class="svg-info-post-10" cx="6" cy="6" r="6"/></g>
        <g><path class="svg-info-post-11" d="M6.8,2.7c0,0.4-0.3,0.8-0.8,0.8c-0.5,0-0.8-0.3-0.8-0.8c0-0.5,0.3-0.8,0.8-0.8C6.5,1.9,6.8,2.3,6.8,2.7z M5.3,10.2V4.4h1.5v5.8H5.3z"/></g>
    </symbol>

    <symbol id="svg-paper-plane-1">
         <g id="-paper-plane-1-1" stroke-width="1" fill="none" stroke="none" fill-rule="evenodd">
        <g id="paper-plane-1_hover" transform="translate(-1118.000000, -758.000000)" fill="currentColor">
            <g id="paper-plane-1-Group-3" transform="translate(393.000000, 750.000000)">
                <g id="paper-plane-1-Group-2">
                    <g id="paper-plane-1-Group" transform="translate(709.000000, 2.000000)">
                        <g id="paper-plane-1-paper-plane" transform="translate(16.000000, 6.000000)">
                            <g id="-paper-plane-1Capa_1">
                                <path d="M21.767034,0.191339019 C21.5844809,0.00839658849 21.3036298,-0.0432025586 21.0695872,0.0599957356 L0.380225532,9.14613646 C0.160225532,9.24464392 0.0151191489,9.45573134 0.00107659574,9.69496375 C-0.0129659574,9.93419616 0.113417021,10.1593561 0.319374468,10.2766269 L7.53256596,14.3764136 L11.8155447,21.6800384 C11.9278851,21.8723625 12.1385234,21.9943241 12.3585234,21.9943241 L12.3959702,21.9943241 C12.6346936,21.9802516 12.8406511,21.8348358 12.9389489,21.6143667 L21.9027787,0.890272921 C22.0057574,0.651040512 21.9542681,0.37428145 21.767034,0.191339019 L21.767034,0.191339019 Z M18.4763957,2.57897228 L7.88831064,13.1192708 L2.04192766,9.79816205 L18.4763957,2.57897228 L18.4763957,2.57897228 Z M12.2742681,19.963194 L8.78703404,14.0105288 L19.4359702,3.40924947 L12.2742681,19.963194 L12.2742681,19.963194 Z" id="Shape"/>
                            </g>
                        </g>
                    </g>
                </g>
            </g>
        </g>
    </g>
    </symbol>

     <symbol id="svg-story-post-1">
        <g fill="none" fill-rule="evenodd">
        <g fill="#1EA385" fill-rule="nonzero">
            <path d="M9.554 14.388H3.601V13.1l2.742-2.883c.676-.769 1.014-1.38 1.014-1.834 0-.367-.08-.646-.241-.838-.16-.19-.392-.287-.697-.287a.867.867 0 0 0-.732.384c-.188.256-.281.575-.281.958H3.425a2.799 2.799 0 0 1 1.483-2.49c.464-.25.984-.375 1.558-.375.922 0 1.632.213 2.13.638.498.426.747 1.037.747 1.834 0 .336-.062.663-.187.982-.125.318-.32.652-.583 1.002-.264.35-.689.817-1.275 1.403l-1.101 1.272h3.357v1.523zM12.255 11.054h1.535V8.43l-.123.2-1.412 2.425zm3.51 0h.867v1.523h-.867v1.811H13.79v-1.81h-3.299l-.117-1.208 3.416-5.496v-.017h1.975v5.197z"/>
        </g>
        <path stroke="#1EA385" d="M.562 17.655V2.612A2 2 0 0 1 2.564.61h15.043a2 2 0 0 1 2.003 2.002v15.043a2 2 0 0 1-2.003 2.002H3.425"/>
        <path fill="#1EA385" fill-rule="nonzero" d="M.548 19.397l1.548-2.193H-1z"/>
    </g>
    </symbol>


    <symbol id="svg-delete-1">
       <path fill-rule="evenodd" d="M12 2l-1-1H7L6 2H3v2h12V2h-3zM5.427 8.466L7 7l2.005 2L11 7l1.567 1.466-2.069 2.034 2.07 2.039L11 14l-1.995-2L7 14l-1.584-1.481 2.09-2.039-2.079-2.014zM4 15c0 .978 1.057 2 2 2h6c.943 0 1.958-1.022 1.958-2V5H4v10z"/>
    </symbol>

    <symbol id="svg-check-1">
           <path fill-rule="evenodd" d="M3.333 6.947L0 3.614l.94-.94L3.333 5.06 8.393 0l.94.947z"/>
    </symbol>

    <symbol id="svg-fun-face-1">
         <g>
            <path d="M15.2 6.267c-2.206 0-4 1.831-4 4.083v34.3c0 2.252 1.794 4.083 4 4.083h33.6c2.206 0 4-1.831 4-4.083v-34.3c0-2.252-1.794-4.083-4-4.083H15.2zM48.8 52H15.2C11.23 52 8 48.702 8 44.65v-34.3C8 6.298 11.23 3 15.2 3h33.6c3.97 0 7.2 3.298 7.2 7.35v34.3c0 4.052-3.23 7.35-7.2 7.35z"/>
            <path d="M32.5 41c-5.35 0-10.317-3.19-13.289-8.532-.439-.79-.172-1.798.598-2.25a1.58 1.58 0 0 1 2.19.614c2.426 4.365 6.255 6.87 10.501 6.87 4.246 0 8.075-2.505 10.502-6.87.44-.791 1.42-1.067 2.189-.614.77.452 1.037 1.46.598 2.25C42.817 37.81 37.85 41 32.5 41M27.412 21c-.876 0-1.587-.75-1.587-1.674 0-1.642-1.268-2.978-2.825-2.978-1.558 0-2.825 1.336-2.825 2.978 0 .924-.711 1.674-1.587 1.674C17.71 21 17 20.25 17 19.326 17 15.838 19.691 13 23 13c3.308 0 6 2.838 6 6.326C29 20.25 28.289 21 27.412 21M45.412 21c-.876 0-1.587-.75-1.587-1.674 0-1.642-1.268-2.978-2.825-2.978-1.558 0-2.825 1.336-2.825 2.978 0 .924-.711 1.674-1.587 1.674C35.71 21 35 20.25 35 19.326 35 15.838 37.691 13 41 13c3.308 0 6 2.838 6 6.326C47 20.25 46.289 21 45.412 21M9.486 30C1.646 30 0 14.57 0 1.625 0 .727.677 0 1.514 0c.836 0 1.514.727 1.514 1.625 0 15.497 2.474 25.124 6.458 25.124.836 0 1.514.728 1.514 1.626C11 29.272 10.322 30 9.486 30M55.514 30C54.678 30 54 29.272 54 28.375c0-.898.678-1.626 1.514-1.626 3.984 0 6.458-9.627 6.458-25.124C61.972.727 62.65 0 63.486 0 64.323 0 65 .727 65 1.625 65 14.57 63.354 30 55.514 30"/>
        </g>
    </symbol>

     <symbol id="svg-info-post-icon-2">
          <g fill="none" fill-rule="evenodd">
            <circle cx="20" cy="20" r="18" stroke="#1CA385"/>
                <text fill="#1CA385" font-family="Roboto-Regular, Roboto" font-size="25"><tspan x="16" y="29">!</tspan>
            </text>
          </g>
     </symbol>

    <symbol id="svg-insta-icon-1">
        <defs>
            <radialGradient id="svg-insta-icon-1-a" cx="1.826%" cy="90.829%" r="144.581%" fx="1.826%" fy="90.829%" gradientTransform="matrix(1 0 0 .9979 0 .002)">
            <stop offset="0%" stop-color="#FED576"/>
            <stop offset="26.34%" stop-color="#F47133"/>
            <stop offset="60.91%" stop-color="#BC3081"/>
            <stop offset="100%" stop-color="#4C63D2"/>
            </radialGradient>
        </defs>
        <g fill="none" fill-rule="nonzero">
            <path fill="url(#svg-insta-icon-1-a)" d="M.034 9.751v.54c.139 5.165 4.29 9.312 9.23 9.7h1.52c4.968-.392 9.048-4.577 9.182-9.708V9.75C19.832 4.527 15.608.291 10.522.03 5.048-.25.185 4.152.034 9.75z"/>
            <g fill="#FFF" transform="translate(4.084 3.924)">
            <path d="M5.962 1.11c1.587 0 1.777.004 2.404.033.581.026.893.127 1.103.207.278.11.476.24.683.452.206.21.336.413.446.696.08.215.177.536.206 1.126.03.642.034.832.034 2.452s-.004 1.81-.034 2.451c-.025.591-.122.912-.206 1.127-.11.283-.236.485-.446.696a1.823 1.823 0 0 1-.683.452c-.21.084-.526.181-1.103.206-.627.03-.817.034-2.404.034s-1.777-.004-2.404-.034c-.581-.025-.893-.126-1.103-.206a1.823 1.823 0 0 1-.682-.452 1.918 1.918 0 0 1-.447-.696c-.08-.215-.177-.536-.206-1.127-.03-.64-.034-.83-.034-2.451 0-1.62.005-1.81.034-2.452.025-.59.122-.91.206-1.126.11-.283.236-.485.447-.696.206-.211.404-.342.682-.452.21-.084.526-.181 1.103-.207.627-.025.817-.033 2.404-.033zm0-1.093c-1.617 0-1.819.008-2.45.038-.632.03-1.066.13-1.445.283a2.897 2.897 0 0 0-1.052.7 2.941 2.941 0 0 0-.687 1.076C.181 2.498.08 2.94.051 3.586c-.03.646-.034.853-.034 2.498 0 1.646.008 1.853.034 2.498.029.646.13 1.085.277 1.473.152.396.354.738.687 1.076.332.337.66.544 1.052.7.38.152.813.253 1.445.283.635.03.837.038 2.45.038 1.613 0 1.82-.009 2.45-.038.632-.03 1.066-.13 1.445-.283a2.897 2.897 0 0 0 1.052-.7c.333-.338.535-.675.687-1.076.147-.384.248-.827.278-1.473.03-.645.033-.852.033-2.498 0-1.645-.008-1.852-.033-2.498-.03-.645-.13-1.084-.278-1.472a2.976 2.976 0 0 0-.687-1.076 2.933 2.933 0 0 0-1.052-.7C9.477.186 9.044.084 8.413.055 7.78.025 7.575.017 5.963.017z"/>
            <path d="M5.962 2.966C4.274 2.966 2.91 4.36 2.91 6.08c0 1.722 1.369 3.114 3.053 3.114S9.015 7.802 9.015 6.08c0-1.721-1.369-3.114-3.053-3.114zm0 5.135c-1.095 0-1.983-.903-1.983-2.02 0-1.119.888-2.022 1.983-2.022 1.095 0 1.983.903 1.983 2.021 0 1.118-.888 2.021-1.983 2.021z"/>
            <ellipse cx="9.137" cy="2.844" rx="1" ry="1"/>
        </g>
        </g>
    </symbol>

    <svg class="svg-icon svg-round-plus" y="0px" width="32px" height="32px" viewBox="0 0 400 400">
        <use xlink:href="#svg-round-plus" fill="#FFFFFF"/>
    </svg>
     <svg class="svg-icon svg-round-plus-black" y="34px" width="32px" height="32px" viewBox="0 0 400 400">
        <use xlink:href="#svg-round-plus" fill="#000000"/>
    </svg>
    <svg class="svg-icon svg-round-plus-green" y="68px" width="32px" height="32px" viewBox="0 0 400 400">
        <use xlink:href="#svg-round-plus" fill="#15b49e"/>
    </svg>

     <svg class="svg-icon svg-user-2" y="102px" width="32px" height="32px" viewBox="0 0 16 18">
        <use xlink:href="#svg-user-2" stroke="#b3b3b3" fill="#b3b3b3" color="#b3b3b3"/>
    </svg>

    <svg class="svg-icon svg-user-2-green" y="136px" width="32px" height="32px" viewBox="0 0 16 18">
        <use xlink:href="#svg-user-2" stroke="#15b49e" fill="#15b49e" color="#15b49e"/>
    </svg>

    <svg class="svg-icon svg-tick-1" y="170px" width="32px" height="32px" viewBox="0 0 300 264">
        <use xlink:href="#svg-tick-1" fill="#b3b3b3"/>
    </svg>

    <svg class="svg-icon svg-tick-1-green" y="204px" width="32px" height="32px" viewBox="0 0 300 264">
        <use xlink:href="#svg-tick-1" stroke="#15b49e" fill="#15b49e" color="#15b49e"/>
    </svg>

    <svg class="svg-icon svg-close-1" y="238px" width="32px" height="32px" viewBox="0 0 212.982 212.982">
        <use xlink:href="#svg-close-1" fill="#FFFFFF"/>
    </svg>

    <svg class="svg-icon svg-close-1-black" y="272px" width="32px" height="32px" viewBox="0 0 212.982 212.982">
        <use xlink:href="#svg-close-1" fill="#000000"/>
    </svg>

    <svg class="svg-icon svg-video-1" y="306px" width="32px" height="32px" viewBox="0 0 24.3 20.2">
        <use xlink:href="#svg-video-1" fill="none" stroke="#B0B0B0" stroke-miterlimit="10" stroke-width="1.3"/>
    </svg>

    <svg class="svg-icon svg-video-1-green" y="340px" width="32px" height="32px" viewBox="0 0 24.3 20.2">
        <use xlink:href="#svg-video-1" fill="none" stroke="#15b49e" stroke-miterlimit="10" stroke-width="1.3"/>
    </svg>

    <svg class="svg-icon svg-cover-1" y="374px" width="32px" height="32px" viewBox="0 0 24.3 20.2">
        <use xlink:href="#svg-cover-1" fill="none" stroke="#B0B0B0" stroke-miterlimit="10" stroke-width="1.3"/>
    </svg>

    <svg class="svg-icon svg-cover-1-green" y="408px" width="32px" height="32px" viewBox="0 0 24.3 20.2">
        <use xlink:href="#svg-cover-1" fill="none" stroke="#15b49e" stroke-miterlimit="10" stroke-width="1.3"/>
    </svg>

    <svg class="svg-icon svg-move-1" y="442px" width="32px" height="32px" viewBox="0 0 28.7 29">
        <use xlink:href="#svg-move-1" fill="none" stroke="#F2EEE8" stroke-miterlimit="10" stroke-width="2" stroke-linecap="round"/>
    </svg>

    <svg class="svg-icon svg-move-1-green" y="476px" width="32px" height="32px" viewBox="0 0 28.7 29">
        <use xlink:href="#svg-move-1" fill="none" stroke="#15b49e" stroke-miterlimit="10" stroke-width="2" stroke-linecap="round"/>
    </svg>

     <svg class="svg-icon svg-arrow-1-right-green" y="510px" width="32px" height="32px" viewBox="0 0 500 500">
        <use xlink:href="#svg-arrow-1" transform="rotate(-90 255 200)" fill="#1ca385"/>
    </svg>

    <svg class="svg-icon svg-plus-1-right-green" y="544px" width="32px" height="32px" viewBox="0 0 300 300">
        <use xlink:href="#svg-close-1" transform="rotate(-45 190 80)" fill="#1ca385"/>
    </svg>
    
    <svg class="svg-icon svg-custom-icon-1" y="578px" width="32px" height="32px" viewBox="0 0 86 65">
        <use xlink:href="#svg-custom-icon-1"/>
    </svg>

    <svg class="svg-icon svg-single-post-icon-1" y="612px" width="32px" height="32px" viewBox="0 0 21.01 21.2">
        <use xlink:href="#svg-single-post-1"/>
    </svg>

    <svg class="svg-icon svg-gallery-post-icon-1" y="646px" width="32px" height="32px" viewBox="0 0 16.93 22.02">
        <use xlink:href="#svg-gallery-post-1"/>
    </svg>

    <svg class="svg-icon svg-multi-post-icon-1" y="680px" width="32px" height="32px" viewBox="0 0 21.57 21.39">
        <use xlink:href="#svg-multi-post-1"/>
    </svg>

     <svg class="svg-icon svg-info-post-icon-1" y="714px" width="32px" height="32px" viewBox="0 0 12 12">
        <use xlink:href="#svg-info-post-1"/>
    </svg>

    <svg class="svg-icon svg-paper-plane-icon-2" y="748px" width="32px" height="32px" viewBox="0 0 22 22">
        <use xlink:href="#svg-paper-plane-1" stroke="#ffffff" fill="#ffffff" color="#ffffff"/>
    </svg>

    <svg class="svg-icon svg-paper-plane-icon-2" y="782px" width="32px" height="32px" viewBox="0 0 22 22">
        <use xlink:href="#svg-paper-plane-1" stroke="#A0A09F" fill="#A0A09F" color="#A0A09F"/>
    </svg>

    <svg class="svg-icon svg-paper-plane-icon-2" y="816px" width="32px" height="32px" viewBox="0 0 22 22">
        <use xlink:href="#svg-paper-plane-1" stroke="#1d1d1b" fill="#1d1d1b" color="#1d1d1b"/>
    </svg>

    <svg class="svg-icon svg-delete-1" y="850px" width="32px" height="32px" viewBox="0 0 18 18">
        <use fill="#ffffff" xlink:href="#svg-delete-1"/>
     </svg>

    <svg class="svg-icon svg-check-1" y="884px" width="32px" height="32px" viewBox="0 0 10 7">
        <use fill="#fff" xlink:href="#svg-check-1"/>
     </svg>

    <svg class="svg-icon svg-story-post-1" y="918px" width="32px" height="32px" viewBox="0 0 20 20">
        <use fill="#fff" xlink:href="#svg-story-post-1"/>
    </svg>

     <svg class="svg-icon svg-fun-face-1" y="952px" width="32px" height="32px" viewBox="0 0 65 52">
        <use xlink:href="#svg-fun-face-1" fill="#1CA385" fill-rule="evenodd"/>
     </svg>

    <svg class="svg-icon svg-info-post-icon-2" y="986px" width="32px" height="32px" viewBox="0 0 40 40">
        <use xlink:href="#svg-info-post-icon-2"/>
    </svg>

    <svg class="svg-icon svg-insta-icon-1" y="1020px" width="32px" height="32px" viewBox="0 0 20 20">
        <use xlink:href="#svg-insta-icon-1"/>
    </svg>



</svg>