<?xml version="1.0" encoding="UTF-8"?>
<!DOCTYPE svg PUBLIC "-//W3C//DTD SVG 1.1//EN" "http://www.w3.org/Graphics/SVG/1.1/DTD/svg11.dtd">
<svg xmlns="http://www.w3.org/2000/svg" xmlns:xlink="http://www.w3.org/1999/xlink" width="32px" height="1200px" viewBox="0 0 32 1200" x="0px" y="0px" xml:space="preserve">

    <symbol id="svg-menu-element-1-active">
        <g stroke="none" stroke-width="1" fill="none" fill-rule="evenodd">
        <g>
            <path d="M4.0001,23.5 C2.0701,23.5 0.5001,21.93 0.5001,20 L0.5001,4 C0.5001,2.07 2.0701,0.5 4.0001,0.5 L20.0001,0.5 C21.9301,0.5 23.5001,2.07 23.5001,4 L23.5001,20 C23.5001,21.93 21.9301,23.5 20.0001,23.5 L4.0001,23.5 Z" id="Fill-1" fill="#DCF0EE "/>
            <g fill="#000000 ">
                <path d="M20.0001,0 L4.0001,0 C1.8001,0 0.0001,1.8 0.0001,4 L0.0001,20 C0.0001,22.2 1.8001,24 4.0001,24 L20.0001,24 C22.2001,24 24.0001,22.2 24.0001,20 L24.0001,4 C24.0001,1.8 22.2001,0 20.0001,0 M20.0001,1 C21.6541,1 23.0001,2.346 23.0001,4 L23.0001,20 C23.0001,21.654 21.6541,23 20.0001,23 L4.0001,23 C2.3461,23 1.0001,21.654 1.0001,20 L1.0001,4 C1.0001,2.346 2.3461,1 4.0001,1 L20.0001,1" id="Fill-3"/>
            </g>
            <path d="M19.20024,18.60024 L4.80024,18.60024" id="Stroke-10" stroke="#000000 " stroke-linecap="round" stroke-linejoin="round"/>
            <path d="M19.20024,14.99496 L4.80024,14.99496" id="Stroke-12" stroke="#000000 " stroke-linecap="round" stroke-linejoin="round"/>
            <polyline id="Stroke-14" stroke="#000000 " stroke-linecap="round" stroke-linejoin="round" points="3.50352 12.00024 7.20072 7.20024 11.99952 12.00024 16.80072 4.80024 20.48232 12.00024"/>
        </g>
        </g>
    </symbol>

     <symbol id="svg-menu-element-1-click">
        <g stroke="none" stroke-width="1" fill="none" fill-rule="evenodd">
        <g>
            <path d="M4.0001,23.5 C2.0701,23.5 0.5001,21.93 0.5001,20 L0.5001,4 C0.5001,2.07 2.0701,0.5 4.0001,0.5 L20.0001,0.5 C21.9301,0.5 23.5001,2.07 23.5001,4 L23.5001,20 C23.5001,21.93 21.9301,23.5 20.0001,23.5 L4.0001,23.5 Z" id="Fill-1"/>
            <g fill="#000000 ">
                <path d="M20.0001,0 L4.0001,0 C1.8001,0 0.0001,1.8 0.0001,4 L0.0001,20 C0.0001,22.2 1.8001,24 4.0001,24 L20.0001,24 C22.2001,24 24.0001,22.2 24.0001,20 L24.0001,4 C24.0001,1.8 22.2001,0 20.0001,0 M20.0001,1 C21.6541,1 23.0001,2.346 23.0001,4 L23.0001,20 C23.0001,21.654 21.6541,23 20.0001,23 L4.0001,23 C2.3461,23 1.0001,21.654 1.0001,20 L1.0001,4 C1.0001,2.346 2.3461,1 4.0001,1 L20.0001,1" id="Fill-3"/>
            </g>
            <path d="M19.20024,18.60024 L4.80024,18.60024" id="Stroke-10" stroke="#000000 " stroke-linecap="round" stroke-linejoin="round"/>
            <path d="M19.20024,14.99496 L4.80024,14.99496" id="Stroke-12" stroke="#000000 " stroke-linecap="round" stroke-linejoin="round"/>
            <polyline id="Stroke-14" stroke="#000000 " stroke-linecap="round" stroke-linejoin="round" points="3.50352 12.00024 7.20072 7.20024 11.99952 12.00024 16.80072 4.80024 20.48232 12.00024"/>
        </g>
        </g>
    </symbol>

    <symbol id="svg-menu-element-1-click">
        <g fill="none" fill-rule="evenodd">
            <path fill="#FFF" d="M8 19.5c-1.93 0-3.5-1.57-3.5-3.5V4C4.5 2.07 6.07.5 8 .5h12c1.93 0 3.5 1.57 3.5 3.5v12c0 1.93-1.57 3.5-3.5 3.5H8z"/>
            <path fill="#000" d="M20 0H8C5.8 0 4 1.8 4 4v12c0 2.2 1.8 4 4 4h12c2.2 0 4-1.8 4-4V4c0-2.2-1.8-4-4-4m0 1c1.654 0 3 1.346 3 3v12c0 1.654-1.346 3-3 3H8c-1.654 0-3-1.346-3-3V4c0-1.654 1.346-3 3-3h12"/>
            <path fill="#A7EDE3" d="M4 23.5C2.07 23.5.5 21.93.5 20V8C.5 6.07 2.07 4.5 4 4.5h12c1.93 0 3.5 1.57 3.5 3.5v12c0 1.93-1.57 3.5-3.5 3.5H4z"/>
            <g transform="translate(0 4)">
                <mask id="svg-menu-element-1-click-b" fill="#fff">
                    <path d="M20 20H0V0h20z"/>
                </mask>
                <path fill="#000" d="M16 0H4a4 4 0 0 0-4 4v12a4 4 0 0 0 4 4h12a4 4 0 0 0 4-4V4a4 4 0 0 0-4-4m0 1c1.654 0 3 1.346 3 3v12c0 1.654-1.346 3-3 3H4c-1.654 0-3-1.346-3-3V4c0-1.654 1.346-3 3-3h12" mask="url(#svg-menu-element-1-click-b)"/>
            </g>
            <path stroke="#000" stroke-linecap="round" stroke-linejoin="round" d="M16 19.5H4M16 16.496H4M2.92 14L6 10l4 4 4-6 3.069 6"/>
        </g>
    </symbol>

     <symbol id="svg-menu-element-2-active">
        <g fill="none" fill-rule="evenodd">
            <path fill="#DCF0EE" d="M4 23.5C2.07 23.5.5 21.93.5 20V4C.5 2.07 2.07.5 4 .5h16c1.93 0 3.5 1.57 3.5 3.5v16c0 1.93-1.57 3.5-3.5 3.5H4z"/>
            <mask id="svg-menu-element-2-active-b" fill="#fff">
                <path d="M12 0h12v24H0V0h12z"/>
            </mask>
            <path fill="#000" d="M20 0H4C1.8 0 0 1.8 0 4v16c0 2.2 1.8 4 4 4h16c2.2 0 4-1.8 4-4V4c0-2.2-1.8-4-4-4m0 1c1.654 0 3 1.346 3 3v16c0 1.654-1.346 3-3 3H4c-1.654 0-3-1.346-3-3V4c0-1.654 1.346-3 3-3h16" mask="url(#svg-menu-element-2-active-b)"/>
            <path stroke="#000" stroke-linecap="round" stroke-linejoin="round" d="M4.493 19.808V7.493c0-1.103.894-1.997 1.997-1.997h12.006c1.103 0 1.997.894 1.997 1.997v6.015a1.997 1.997 0 0 1-1.997 1.997H9.43c-.549 0-1.073.225-1.45.623l-3.487 3.68z"/>
            <mask id="svg-menu-element-2-active-d" fill="#fff">
                <path d="M0 24h24V0H0z"/>
            </mask>
            <path fill="#000" d="M8 12h2v-2H8zM12 12h2v-2h-2zM16 12h2v-2h-2z" mask="url(#svg-menu-element-2-active-d)"/>
        </g>
    </symbol>

    <symbol id="svg-menu-element-2-click">
        <g fill="none" fill-rule="evenodd">
            <path d="M4 23.5C2.07 23.5.5 21.93.5 20V4C.5 2.07 2.07.5 4 .5h16c1.93 0 3.5 1.57 3.5 3.5v16c0 1.93-1.57 3.5-3.5 3.5H4z"/>
            <mask id="svg-menu-element-2-click-b" fill="#fff">
                <path d="M12 0h12v24H0V0h12z"/>
            </mask>
            <path fill="#000" d="M20 0H4C1.8 0 0 1.8 0 4v16c0 2.2 1.8 4 4 4h16c2.2 0 4-1.8 4-4V4c0-2.2-1.8-4-4-4m0 1c1.654 0 3 1.346 3 3v16c0 1.654-1.346 3-3 3H4c-1.654 0-3-1.346-3-3V4c0-1.654 1.346-3 3-3h16" mask="url(#svg-menu-element-2-click-b)"/>
            <path stroke="#000" stroke-linecap="round" stroke-linejoin="round" d="M4.493 19.808V7.493c0-1.103.894-1.997 1.997-1.997h12.006c1.103 0 1.997.894 1.997 1.997v6.015a1.997 1.997 0 0 1-1.997 1.997H9.43c-.549 0-1.073.225-1.45.623l-3.487 3.68z"/>
            <mask id="svg-menu-element-2-click-d" fill="#fff">
                <path d="M0 24h24V0H0z"/>
            </mask>
            <path fill="#000" d="M8 12h2v-2H8zM12 12h2v-2h-2zM16 12h2v-2h-2z" mask="url(#svg-menu-element-2-click-d)"/>
        </g>
    </symbol>

    <symbol id="svg-menu-element-3-active">
        <g fill="none" fill-rule="evenodd">
            <path d="M4 23.5C2.07 23.5.5 21.93.5 20V4C.5 2.07 2.07.5 4 .5h16c1.93 0 3.5 1.57 3.5 3.5v16c0 1.93-1.57 3.5-3.5 3.5H4z"/>
            <path fill="#000" d="M20 0H4C1.8 0 0 1.8 0 4v16c0 2.2 1.8 4 4 4h16c2.2 0 4-1.8 4-4V4c0-2.2-1.8-4-4-4m0 1c1.654 0 3 1.346 3 3v16c0 1.654-1.346 3-3 3H4c-1.654 0-3-1.346-3-3V4c0-1.654 1.346-3 3-3h16"/>
            <path stroke="#000" stroke-linecap="round" stroke-linejoin="round" d="M2.993 14l5.063-4 4.894 4 6.432-6.383"/>
            <path stroke="#000" stroke-linecap="round" stroke-linejoin="round" d="M19.5 13V7.49h-5.558"/>
        </g>

    </symbol>

    <symbol id="svg-menu-element-3-click">
        <g fill="none" fill-rule="evenodd">
            <path fill="#DCF0EE" d="M4 23.5C2.07 23.5.5 21.93.5 20V4C.5 2.07 2.07.5 4 .5h16c1.93 0 3.5 1.57 3.5 3.5v16c0 1.93-1.57 3.5-3.5 3.5H4z"/>
            <path fill="#000" d="M20 0H4C1.8 0 0 1.8 0 4v16c0 2.2 1.8 4 4 4h16c2.2 0 4-1.8 4-4V4c0-2.2-1.8-4-4-4m0 1c1.654 0 3 1.346 3 3v16c0 1.654-1.346 3-3 3H4c-1.654 0-3-1.346-3-3V4c0-1.654 1.346-3 3-3h16"/>
            <path stroke="#000" stroke-linecap="round" stroke-linejoin="round" d="M2.993 14l5.063-4 4.894 4 6.432-6.383"/>
            <path stroke="#000" stroke-linecap="round" stroke-linejoin="round" d="M19.5 13V7.49h-5.558"/>
        </g>
    </symbol>

    <symbol id="svg-menu-element-4-active">
        <g fill="none" fill-rule="evenodd">
            <path fill="#DCF0EE" d="M4 23.5C2.07 23.5.5 21.93.5 20V4C.5 2.07 2.07.5 4 .5h16c1.93 0 3.5 1.57 3.5 3.5v16c0 1.93-1.57 3.5-3.5 3.5H4z"/>
            <path fill="#000" d="M20 0H4C1.8 0 0 1.8 0 4v16c0 2.2 1.8 4 4 4h16c2.2 0 4-1.8 4-4V4c0-2.2-1.8-4-4-4m0 1c1.654 0 3 1.346 3 3v16c0 1.654-1.346 3-3 3H4c-1.654 0-3-1.346-3-3V4c0-1.654 1.346-3 3-3h16"/>
            <path stroke="#000" stroke-linecap="round" stroke-linejoin="round" d="M11.98 4.313L14.3 9.25l5.181.79-3.75 3.843.886 5.428-4.636-2.563-4.635 2.564.885-5.428-3.75-3.844 5.184-.79z"/>
        </g>
    </symbol>

    <symbol id="svg-menu-element-4-click">
        <g fill="none" fill-rule="evenodd">
            <path d="M4 23.5C2.07 23.5.5 21.93.5 20V4C.5 2.07 2.07.5 4 .5h16c1.93 0 3.5 1.57 3.5 3.5v16c0 1.93-1.57 3.5-3.5 3.5H4z"/>
            <g><mask id="svg-menu-element-4-click-b" fill="#fff"><path id="a" d="M12 0h12v24H0V0h12z"/></mask>
                <path fill="#000" d="M20 0H4C1.8 0 0 1.8 0 4v16c0 2.2 1.8 4 4 4h16c2.2 0 4-1.8 4-4V4c0-2.2-1.8-4-4-4m0 1c1.654 0 3 1.346 3 3v16c0 1.654-1.346 3-3 3H4c-1.654 0-3-1.346-3-3V4c0-1.654 1.346-3 3-3h16" mask="url(#svg-menu-element-4-click-b)"/>
            </g>
            <path stroke="#000" stroke-linecap="round" stroke-linejoin="round" d="M11.98 4.313L14.3 9.25l5.181.79-3.75 3.843.886 5.428-4.636-2.563-4.635 2.564.885-5.428-3.75-3.844 5.184-.79z"/>
        </g>
    </symbol>


     <symbol id="svg-menu-element-5-active">
        <g fill="none" fill-rule="evenodd">
            <path fill="#DCF0EE" d="M4 23.5C2.07 23.5.5 21.93.5 20V4C.5 2.07 2.07.5 4 .5h16c1.93 0 3.5 1.57 3.5 3.5v16c0 1.93-1.57 3.5-3.5 3.5H4z"/>
            <g><mask id="svg-menu-element-5-active-b" fill="#fff"><path id="a" d="M24 0v24H0V0h12z"/></mask>
                <path fill="#000" d="M20 0H4C1.8 0 0 1.8 0 4v16c0 2.2 1.8 4 4 4h16c2.2 0 4-1.8 4-4V4c0-2.2-1.8-4-4-4m0 1c1.654 0 3 1.346 3 3v16c0 1.654-1.346 3-3 3H4c-1.654 0-3-1.346-3-3V4c0-1.654 1.346-3 3-3h16" mask="url(#svg-menu-element-5-active-b)"/>
            </g>
            <path stroke="#000" stroke-linecap="round" stroke-linejoin="round" d="M11.99 6.511c3.025 0 5.5 2.475 5.5 5.5s-2.475 5.5-5.5 5.5-5.5-2.475-5.5-5.5 2.475-5.5 5.5-5.5zM11.99 4.391v2M6.282 6.767L7.747 8.23M4.5 12.011h2M6.99 18.248l1.465-1.465M11.99 19.515v-2M17.233 18.248l-1.465-1.465M19.5 12.011h-2M17.698 6.767L16.233 8.23"/>
        </g>
    </symbol>

    <symbol id="svg-menu-element-5-click">
        <g fill="none" fill-rule="evenodd">
            <path d="M4 23.5C2.07 23.5.5 21.93.5 20V4C.5 2.07 2.07.5 4 .5h16c1.93 0 3.5 1.57 3.5 3.5v16c0 1.93-1.57 3.5-3.5 3.5H4z"/>
            <g><mask id="svg-menu-element-5-click-b" fill="#fff"><path id="a" d="M12 0h12v24H0V0h12z"/></mask>
                <path fill="#000" d="M20 0H4C1.8 0 0 1.8 0 4v16c0 2.2 1.8 4 4 4h16c2.2 0 4-1.8 4-4V4c0-2.2-1.8-4-4-4m0 1c1.654 0 3 1.346 3 3v16c0 1.654-1.346 3-3 3H4c-1.654 0-3-1.346-3-3V4c0-1.654 1.346-3 3-3h16" mask="url(#svg-menu-element-5-click-b)"/>
            </g>
            <path stroke="#000" stroke-linecap="round" stroke-linejoin="round" d="M11.99 6.511c3.025 0 5.5 2.475 5.5 5.5s-2.475 5.5-5.5 5.5-5.5-2.475-5.5-5.5 2.475-5.5 5.5-5.5zM11.99 4.391v2M6.282 6.767L7.747 8.23M4.5 12.011h2M6.99 18.248l1.465-1.465M11.99 19.515v-2M17.233 18.248l-1.465-1.465M19.5 12.011h-2M17.698 6.767L16.233 8.23"/>
        </g>
    </symbol>

    <symbol id="svg-menu-element-bowl">
        <g transform="rotate(90 90 90)">
            <path fill="#A7EDE3" id="waveShape" d="M300,300V2.5c0,0-0.6-0.1-1.1-0.1c0,0-25.5-2.3-40.5-2.4c-15,0-40.6,2.4-40.6,2.4  c-12.3,1.1-30.3,1.8-31.9,1.9c-2-0.1-19.7-0.8-32-1.9c0,0-25.8-2.3-40.8-2.4c-15,0-40.8,2.4-40.8,2.4c-12.3,1.1-30.4,1.8-32,1.9  c-2-0.1-20-0.8-32.2-1.9c0,0-3.1-0.3-8.1-0.7V300H300z"/>
        </g>
    </symbol>

     <symbol id="svg-menu-element-shadow">
        <defs>
        <rect id="svg-menu-element-shadow-path-1" x="0" y="0" width="1" height="14"/>
        <rect id="svg-menu-element-shadow-path-3" x="-1" y="-79" width="1140" height="80"/>
        <filter x="-0.6%" y="-6.2%" width="101.2%" height="117.5%" filterUnits="objectBoundingBox" id="svg-menu-element-shadow-filter-4">
            <feOffset dx="0" dy="2" in="SourceAlpha" result="shadowOffsetOuter1"/>
            <feGaussianBlur stdDeviation="2" in="shadowOffsetOuter1" result="shadowBlurOuter1"/>
            <feColorMatrix values="0 0 0 0 0   0 0 0 0 0   0 0 0 0 0  0 0 0 0.16 0" type="matrix" in="shadowBlurOuter1"/>
        </filter>
        </defs>
        <g stroke="none" stroke-width="1" fill="none" fill-rule="evenodd">
            <g>
                <mask id="svg-menu-element-shadow-mask-2" fill="white">
                    <use xlink:href="#svg-menu-element-shadow-path-1"/>
                </mask>
                <g mask="url(#svg-menu-element-shadow-mask-2)" fill-opacity="1" fill="black">
                    <use filter="url(#svg-menu-element-shadow-filter-4)" xlink:href="#svg-menu-element-shadow-path-3"/>
                </g>
            </g>
        </g>
    </symbol>

    <symbol id="svg-menu-element-shadow-triangle">
        <filter filterUnits="objectBoundingBox" height="117.5%" id="svg-menu-element-shadow-triangle-filter-4" width="101.2%" x="-0.6%" y="-6.2%">
            <feOffset dx="0" dy="2" in="SourceAlpha" result="shadowOffsetOuter1"/>
            <feGaussianBlur in="shadowOffsetOuter1" result="shadowBlurOuter1" stdDeviation="2"/>
            <feColorMatrix in="shadowBlurOuter1" type="matrix" values="0 0 0 0 0   0 0 0 0 0   0 0 0 0 0  0 0 0 0.16 0"/>
        </filter>
        <rect fill="#F5F5F5" width="14" height="12"/>
        <g>
            <g>
                <defs>
                    <filter id="svg-menu-element-shadow-triangle-st1" filterUnits="userSpaceOnUse" x="-413.8" y="-79" width="1154" height="94">
                        <feColorMatrix type="matrix" values="1 0 0 0 0  0 1 0 0 0  0 0 1 0 0  0 0 0 1 0"/>
                    </filter>
                </defs>
                <mask maskUnits="userSpaceOnUse" x="-413.8" y="-79" width="1154" height="94" id="svg-menu-element-shadow-triangle-st2">
                    <g filter="url(#svg-menu-element-shadow-triangle-st1)">
                        <rect id="path-1" fill="#FFFFFF" width="14" height="13"/>
                    </g>
                </mask>
                <g mask="url(#svg-menu-element-shadow-triangle-st2)">
                    <g filter="url(#svg-menu-element-shadow-triangle-filter-4)">
                        <polygon points="-407,-74 733,-74 733,6 13.2,6 7,0.2 0.7,6 -407,6"/>
                    </g>
                    <g><polygon fill="#FFFFFF" points="-407,-74 733,-74 733,6 13.2,6 7,0.2 0.7,6 -407,6"/></g>
                </g>
            </g>
        </g>
    </symbol>

    <symbol id="svg-menu-element-change-language">
        <g fill="none" fill-rule="evenodd">
            <path fill="#4A4A4A" d="M-1055-8H85v32h-1140z"/>
            <path fill="#FFF" fill-rule="nonzero" d="M7.993.593C3.903.593.593 3.91.593 8s3.31 7.407 7.4 7.407c4.096 0 7.414-3.318 7.414-7.407S12.09.593 7.993.593zm5.133 4.444H10.94A11.592 11.592 0 0 0 9.919 2.4a5.948 5.948 0 0 1 3.207 2.637zM8 2.104a10.435 10.435 0 0 1 1.415 2.933h-2.83c.319-1.06.8-2.044 1.415-2.933zM2.267 9.48A6.105 6.105 0 0 1 2.074 8c0-.511.074-1.007.193-1.481H4.77c-.059.488-.103.977-.103 1.481 0 .504.044.993.103 1.481H2.267zm.607 1.482H5.06c.237.926.578 1.815 1.022 2.637a5.916 5.916 0 0 1-3.207-2.637zM5.06 5.037H2.874A5.916 5.916 0 0 1 6.081 2.4 11.592 11.592 0 0 0 5.06 5.037zM8 13.897a10.435 10.435 0 0 1-1.415-2.934h2.83c-.319 1.06-.8 2.044-1.415 2.933zM9.733 9.48H6.267A10.898 10.898 0 0 1 6.148 8c0-.504.052-1 .119-1.481h3.466C9.8 7 9.852 7.496 9.852 8c0 .504-.052.993-.119 1.481zM9.92 13.6c.444-.822.785-1.711 1.022-2.637h2.185A5.948 5.948 0 0 1 9.919 13.6zm1.31-4.119c.06-.488.104-.977.104-1.481 0-.504-.044-.993-.103-1.481h2.503c.119.474.193.97.193 1.481 0 .511-.074 1.007-.193 1.481H11.23z"/>
        </g>
    </symbol>


    <svg class="svg-icon svg-menu-element-1-active" opacity="1" y="0" width="24px" height="32px" viewBox="0 0 24 24">
        <use xlink:href="#svg-menu-element-1-active"/>
    </svg>

    <svg class="svg-icon svg-menu-element-1-click" opacity="1" y="34px" width="24px" height="32px" viewBox="0 0 24 24">
        <use xlink:href="#svg-menu-element-1-click"/>
    </svg>

    <svg class="svg-icon svg-menu-element-2-active" opacity="1" y="68px" width="24px" height="32px" viewBox="0 0 24 24">
        <use xlink:href="#svg-menu-element-2-active"/>
    </svg>

    <svg class="svg-icon svg-menu-element-2-click" opacity="1" y="102px" width="24px" height="32px" viewBox="0 0 24 24">
        <use xlink:href="#svg-menu-element-2-click"/>
    </svg>

    <svg class="svg-icon svg-menu-element-3-active" opacity="1" y="170px" width="24px" height="32px" viewBox="0 0 24 24">
        <use xlink:href="#svg-menu-element-3-active"/>
    </svg>

    <svg class="svg-icon svg-menu-element-3-click" opacity="1" y="136px" width="24px" height="32px" viewBox="0 0 24 24">
        <use xlink:href="#svg-menu-element-3-click"/>
    </svg>

    <svg class="svg-icon svg-menu-element-4-active" opacity="1" y="204px" width="24px" height="32px" viewBox="0 0 24 24">
        <use xlink:href="#svg-menu-element-4-active"/>
    </svg>

    <svg class="svg-icon svg-menu-element-4-click" opacity="1" y="238px" width="24px" height="32px" viewBox="0 0 24 24">
        <use xlink:href="#svg-menu-element-4-click"/>
    </svg>

    <svg class="svg-icon svg-menu-element-5-active" opacity="1" y="272px" width="24px" height="32px" viewBox="0 0 24 24">
        <use xlink:href="#svg-menu-element-5-active"/>
    </svg>

    <svg class="svg-icon svg-menu-element-5-click" opacity="1" y="306px" width="24px" height="32px" viewBox="0 0 24 24">
        <use xlink:href="#svg-menu-element-5-click"/>
    </svg>

    <svg class="svg-icon svg-menu-element-bowl" opacity="1" y="340px" width="24px" height="32px" viewBox="0 0 24 24" enable-background="new 0 0 24 24">
        <use xlink:href="#svg-menu-element-bowl"/>
    </svg>

    <svg class="svg-icon svg-menu-element-shadow" y="374px" width="5px" height="32px" viewBox="0 0 1 7">
        <use xlink:href="#svg-menu-element-shadow"/>
    </svg>

    <svg class="svg-icon svg-menu-element-shadow-triangle" y="408px" width="32px" height="32px" viewBox="0 0 14 12">
        <use xlink:href="#svg-menu-element-shadow-triangle"/>
    </svg>

     <svg class="svg-icon svg-menu-element-change-language" y="442px" width="32px" height="32px" viewBox="0 0 16 16">
        <use xlink:href="#svg-menu-element-change-language"/>
     </svg>



</svg>