<?xml version="1.0" encoding="UTF-8" standalone="no"?>
<svg
   xmlns:dc="http://purl.org/dc/elements/1.1/"
   xmlns:cc="http://creativecommons.org/ns#"
   xmlns:rdf="http://www.w3.org/1999/02/22-rdf-syntax-ns#"
   xmlns:svg="http://www.w3.org/2000/svg"
   xmlns="http://www.w3.org/2000/svg"
   viewBox="0 0 2541.1307 663.80594"
   height="663.80591"
   width="2541.1306"
   xml:space="preserve"
   id="svg2"
   version="1.1"><metadata
     id="metadata8"><rdf:RDF><cc:Work
         rdf:about=""><dc:format>image/svg+xml</dc:format><dc:type
           rdf:resource="http://purl.org/dc/dcmitype/StillImage" /></cc:Work></rdf:RDF></metadata><defs
     id="defs6"><clipPath
       id="clipPath18"
       clipPathUnits="userSpaceOnUse"><path
         id="path16"
         d="M 0,800.5 H 2000.5 V 0 H 0 Z" /></clipPath></defs><g
     transform="matrix(1.3333333,0,0,-1.3333333,-78.239003,854.33883)"
     id="g10"><g
       id="g12"><g
         clip-path="url(#clipPath18)"
         id="g14"><g
           transform="translate(324.4263,488.9409)"
           id="g20"><path
             id="path22"
             style="fill:#1371b9;fill-opacity:1;fill-rule:evenodd;stroke:none"
             d="M 0,0 C -10.324,11.208 -25.446,16.001 -43.767,13.975 -68.01,11.292 -87.056,1.248 -97.411,-21.947 c -5.263,-11.785 -7.91,-24.281 -8.72,-37.042 -2.116,-33.353 1.734,-66.19 9.352,-98.662 1.106,-4.706 3.691,-7.338 8.297,-8.143 3.589,-0.629 7.193,-1.167 10.794,-1.718 26.773,-4.097 53.527,-8.336 80.331,-12.214 13.735,-1.988 27.534,-2.977 41.322,0.199 39.904,9.195 57.786,47.898 49.238,81.625 -5.656,22.319 -18.596,39.184 -42.302,44.675 -14.686,3.399 -28.425,-0.583 -42.475,-9.168 0.761,2.597 1.027,3.546 1.315,4.492 4.888,15.985 5.565,31.765 -2.301,47.122 C 5.351,-6.701 2.859,-3.104 0,0 m -124.95,-290.547 c 0.087,48.861 -28.16,84.356 -77.909,97.959 -11.388,3.113 -24.803,5.222 -36.546,6.046 -4.678,0.329 -4.509,-1.319 -5.811,3.059 -6.031,20.257 -13.029,44.441 -19.412,64.589 -1.665,5.255 -1.659,4.067 1.3,7.028 20.183,20.192 40.263,45.669 50.879,72.466 10.86,27.414 12.095,57.882 -1.223,85.186 -1.706,3.496 -1.618,1.851 0.898,4.777 13.333,15.511 28.794,33.281 41.88,48.999 3.192,3.836 2.487,3.358 7.873,1.734 34.872,-10.521 71.632,-12.573 106.717,-1.101 27.064,8.849 52.332,27.384 71.191,48.376 3.958,4.406 2.314,3.371 7.566,2.355 16.415,-3.181 40.745,-7.662 57.15,-10.903 4.301,-0.85 2.793,0.683 3.161,-5.774 C 86.515,68.537 127.033,17.132 192.903,8.36 c 24.149,-3.215 16.143,6.496 20.719,-12.931 2.552,-11.117 11.311,-35.945 15.943,-46.412 2.908,-7.492 2.999,-5.034 -2.291,-9.419 -20.327,-16.851 -38.831,-39.814 -48.456,-64.502 -12.316,-31.604 -11.746,-70.616 -1.81,-102.925 2.783,-9.043 3.776,-4.536 -3.31,-10.786 -10.611,-9.354 -28.67,-27.019 -38.212,-37.478 -5.321,-5.836 -1.845,-4.258 -9.316,-2.369 -35.096,8.879 -74.587,9.713 -108.815,-3.292 -24.256,-9.216 -46.232,-27.865 -60.727,-49.22 -4.291,-6.321 -3.342,-4.651 -10.056,-2.065 -19.474,7.508 -44.258,17.092 -64.122,23.464 -8.598,2.757 -7.871,0.142 -7.45,10.223 0.065,1.537 0.044,7.229 0.05,8.805" /></g><g
           transform="translate(1071.5166,524.5)"
           id="g24"><path
             id="path26"
             style="fill:#231f20;fill-opacity:1;fill-rule:evenodd;stroke:none"
             d="m 0,0 c -16.206,-17.818 -31.55,-34.683 -48.011,-52.778 -19.509,17.682 -41.373,28.156 -67.25,29.241 -39.339,1.641 -72.25,-10.647 -92.014,-46.588 -21.797,-39.63 -20.387,-80.351 5.418,-117.395 23.157,-33.248 58.036,-42.733 96.576,-37.188 44.856,6.449 50.168,14.808 44.153,65.676 h -54.409 c 0,20.25 -0.475,37.987 0.459,55.645 0.162,3.011 6.319,8.088 9.775,8.151 33.721,0.619 67.461,0.725 101.172,-0.101 3.778,-0.092 10.54,-6.802 10.6,-10.527 0.733,-48.256 0.626,-96.525 0.246,-144.789 -0.034,-3.883 -2.782,-9.957 -5.843,-11.288 -73.441,-31.734 -147.984,-44.059 -221.192,-1.637 -54.066,31.334 -73.17,83.849 -72.066,144.109 0.993,54.315 20.852,100.517 67.159,131.439 46.034,30.743 97.111,33.288 149.745,24.185 C -47.854,31.382 -22.604,21.491 0,0" /></g><g
           transform="translate(1197.5352,350.6357)"
           id="g28"><path
             id="path30"
             style="fill:#231f20;fill-opacity:1;fill-rule:evenodd;stroke:none"
             d="m 0,0 c 0.019,-33.518 20.698,-54.986 52.766,-54.786 31.191,0.192 52.955,23.26 52.623,55.774 C 105.057,33.013 84.053,54.255 52.613,54.342 19.604,54.436 -0.021,34.168 0,0 m 4.287,-86.248 v -121.488 h -63.752 v 314.248 h 58.24 c 0.715,-7.006 1.412,-13.929 2.187,-21.551 2.202,0.883 3.968,1.033 4.798,2.005 40.566,47.483 140.629,31.941 160.896,-49.92 7.385,-29.839 5.274,-58.973 -5.758,-87.769 C 134.316,-120.111 51.82,-130.924 4.287,-86.248" /></g><g
           transform="translate(1656.7188,328.0293)"
           id="g32"><path
             id="path34"
             style="fill:#231f20;fill-opacity:1;fill-rule:evenodd;stroke:none"
             d="M 0,0 C -0.794,1.39 -3.268,9.041 -5.428,8.95 -28.405,8.003 -52.683,12.318 -72.822,-3.496 -84.508,-12.67 -85.668,-27.25 -75.201,-36.06 -59.8,-49.032 -42.6,-47.107 -25.417,-39.84 -9.625,-33.15 -0.67,-21.42 0,0 m -1.343,51.968 c -4.24,44.528 -45.686,49.787 -95.319,14.678 -11.322,11.203 -22.664,22.425 -34.67,34.298 23.197,23.116 51.303,32.506 81.846,34.343 67.432,4.057 107.027,-18.075 108.845,-93.188 1.009,-41.724 0.18,-83.497 0.18,-126.325 H 1.075 c -0.816,6.728 -1.649,13.558 -2.766,22.74 -26.357,-27.974 -57.238,-33.305 -91.064,-26.217 -29.023,6.093 -48.824,27.05 -51.496,53.557 -3.617,35.867 7.922,61.1 39.838,71.109 27.746,8.707 57.659,10.394 86.658,14.895 4.993,0.776 10.203,0.11 16.412,0.11" /></g><g
           transform="translate(1822.25,431.3843)"
           id="g36"><path
             id="path38"
             style="fill:#231f20;fill-opacity:1;fill-rule:evenodd;stroke:none"
             d="m 0,0 c 20.382,25.922 44.266,33.675 72.482,32.321 34.836,-1.678 59.682,-20.769 65.136,-55.732 3.691,-23.645 3.866,-47.95 4.385,-71.973 0.633,-29.346 -0.008,-58.718 -0.157,-88.074 -0.008,-0.982 -0.635,-1.965 -1.367,-4.081 H 76.561 c 0,32.715 0.224,64.573 -0.113,96.434 -0.129,11.987 -0.696,24.108 -2.593,35.915 -3.037,18.866 -13.009,27.962 -29.341,28.806 -20.314,1.049 -34.301,-7.766 -38.935,-26.241 -2.51,-10.023 -3.48,-20.65 -3.646,-31.033 -0.47,-29.358 -0.171,-58.715 -0.171,-88.079 -0.006,-5.091 0,-10.178 0,-16.07 H -62.666 V 25.5 H -1.932 C -1.398,18.429 -0.865,11.382 0,0" /></g><path
           id="path40"
           style="fill:#231f20;fill-opacity:1;fill-rule:evenodd;stroke:none"
           d="m 1473.602,243.804 h -63.669 v 333.675 h 63.669 z" /><path
           id="path42"
           style="fill:#231f20;fill-opacity:1;fill-rule:evenodd;stroke:none"
           d="M 665.496,555.415 H 732.15 V 243.821 h -66.654 z" /></g></g></g></svg>