<?xml version="1.0" encoding="UTF-8" standalone="no"?>
<svg
   xmlns:dc="http://purl.org/dc/elements/1.1/"
   xmlns:cc="http://creativecommons.org/ns#"
   xmlns:rdf="http://www.w3.org/1999/02/22-rdf-syntax-ns#"
   xmlns:svg="http://www.w3.org/2000/svg"
   xmlns="http://www.w3.org/2000/svg"
   viewBox="0 0 500.36798 500.36667"
   height="500.36667"
   width="500.36798"
   xml:space="preserve"
   id="svg2"
   version="1.1"><metadata
     id="metadata8"><rdf:RDF><cc:Work
         rdf:about=""><dc:format>image/svg+xml</dc:format><dc:type
           rdf:resource="http://purl.org/dc/dcmitype/StillImage" /></cc:Work></rdf:RDF></metadata><defs
     id="defs6"><clipPath
       id="clipPath18"
       clipPathUnits="userSpaceOnUse"><path
         id="path16"
         d="M 0,400.5 H 400.5 V 0 H 0 Z" /></clipPath></defs><g
     transform="matrix(1.3333333,0,0,-1.3333333,-15.185333,517.18265)"
     id="g10"><g
       id="g12"><g
         clip-path="url(#clipPath18)"
         id="g14"><g
           transform="translate(386.665,200.25)"
           id="g20"><path
             id="path22"
             style="fill:#0f71b9;fill-opacity:1;fill-rule:nonzero;stroke:none"
             d="m 0,0 c 0,-103.629 -84.009,-187.638 -187.639,-187.638 -103.629,0 -187.637,84.009 -187.637,187.638 0,103.629 84.008,187.637 187.637,187.637 C -84.009,187.637 0,103.629 0,0" /></g><g
           transform="translate(128.2227,183.5986)"
           id="g24"><path
             id="path26"
             style="fill:#ffffff;fill-opacity:1;fill-rule:nonzero;stroke:none"
             d="m 0,0 5.552,-3.48 -6.45,-31.651 25.715,19.577 5.553,-3.478 -19.113,-30.497 -3.843,2.408 15.9,25.372 -0.086,0.053 -25.425,-19.402 -3.461,2.168 6.377,31.341 -0.086,0.055 -15.901,-25.372 -3.845,2.408 z" /></g><g
           transform="translate(156.8496,126.9297)"
           id="g28"><path
             id="path30"
             style="fill:#ffffff;fill-opacity:1;fill-rule:nonzero;stroke:none"
             d="M 0,0 C 3.802,-2.383 8.751,-1.318 12.096,4.02 15.47,9.401 14.268,14.318 10.468,16.701 6.665,19.083 1.717,18.022 -1.657,12.641 -5.002,7.301 -3.802,2.382 0,0 M 12.474,19.904 C 19.479,15.515 20.01,8.103 15.939,1.61 11.898,-4.839 4.998,-7.594 -2.008,-3.202 -9.013,1.186 -9.542,8.6 -5.5,15.049 c 4.069,6.492 10.969,9.246 17.974,4.855" /></g><g
           transform="translate(176.7451,120.4092)"
           id="g32"><path
             id="path34"
             style="fill:#ffffff;fill-opacity:1;fill-rule:nonzero;stroke:none"
             d="m 0,0 c -1.905,-3.325 0.27,-6.117 3.261,-7.992 2.264,-1.417 5.66,-2.834 7.4,-0.058 1.766,2.82 -1.529,5.539 -4.649,8.626 -3.078,3.061 -5.962,6.53 -3.311,10.76 2.783,4.443 8.334,3.522 12.179,1.112 4.869,-3.051 7.793,-7.024 4.72,-12.594 l -3.633,2.275 c 1.511,2.979 -0.402,5.43 -2.794,6.93 -2.18,1.364 -5.075,2.344 -6.467,0.125 -1.633,-2.606 1.945,-5.443 4.811,-8.369 3.122,-3.087 5.959,-6.531 3.283,-10.803 -3.294,-5.253 -9.275,-3.884 -13.76,-1.075 -4.956,3.107 -7.883,7.738 -4.671,13.339 z" /></g><g
           transform="translate(210.4033,120.376)"
           id="g36"><path
             id="path38"
             style="fill:#ffffff;fill-opacity:1;fill-rule:nonzero;stroke:none"
             d="m 0,0 4.398,-2.757 -2.006,-3.204 -4.401,2.757 -8.592,-13.71 c -1.045,-1.667 -0.762,-2.26 1.503,-3.679 l 1.665,-1.044 -2.007,-3.203 -2.776,1.739 c -3.761,2.357 -4.771,4.062 -2.228,8.12 L -5.639,-0.93 -9.397,1.427 -7.391,4.631 -3.63,2.274 0.518,8.896 4.147,6.621 Z" /></g><g
           transform="translate(83.9199,145.8584)"
           id="g40"><path
             id="path42"
             style="fill:#ffffff;fill-opacity:1;fill-rule:nonzero;stroke:none"
             d="m 0,0 c -4.868,3.053 -9.372,0.045 -11.968,-4.099 -2.731,-4.356 -3.282,-9.603 1.716,-12.734 4.955,-3.105 9.272,0.079 11.975,4.392 C 4.319,-8.298 4.7,-2.944 0,0 M -8.564,9.116 -4.932,6.84 -6.806,3.852 -6.721,3.797 C -4,5.483 -0.511,4.784 2.522,2.883 9.313,-1.374 9.313,-8.87 5.404,-15.106 c -3.906,-6.236 -10.53,-9.403 -17.28,-5.171 -2.263,1.417 -4.974,4.305 -4.964,7.928 l -0.085,0.054 -7.148,-11.405 -3.63,2.276 z" /></g><g
           transform="translate(97.9351,113.8154)"
           id="g44"><path
             id="path46"
             style="fill:#ffffff;fill-opacity:1;fill-rule:nonzero;stroke:none"
             d="m 0,0 c 3.8,-2.382 8.75,-1.319 12.096,4.021 3.373,5.381 2.17,10.298 -1.63,12.681 C 6.666,19.084 1.715,18.021 -1.659,12.64 -5.004,7.302 -3.802,2.384 0,0 M 12.474,19.905 C 19.478,15.516 20.008,8.104 15.939,1.611 11.897,-4.838 4.996,-7.593 -2.008,-3.203 -9.013,1.188 -9.543,8.601 -5.502,15.049 c 4.07,6.493 10.971,9.246 17.976,4.856" /></g><g
           transform="translate(133.7764,114.6133)"
           id="g48"><path
             id="path50"
             style="fill:#ffffff;fill-opacity:1;fill-rule:nonzero;stroke:none"
             d="m 0,0 c -4.867,3.053 -9.368,0.043 -11.966,-4.101 -2.729,-4.356 -3.282,-9.601 1.714,-12.734 4.956,-3.105 9.272,0.079 11.975,4.394 C 4.319,-8.298 4.7,-2.945 0,0 M -8.564,9.115 -4.932,6.84 -6.806,3.85 -6.721,3.797 C -4,5.481 -0.511,4.782 2.522,2.882 9.313,-1.375 9.315,-8.87 5.407,-15.107 c -3.909,-6.236 -10.533,-9.402 -17.283,-5.172 -2.263,1.419 -4.973,4.307 -4.964,7.93 l -0.085,0.052 -7.148,-11.403 -3.63,2.276 z" /></g><g
           transform="translate(154.8613,74.3916)"
           id="g52"><path
             id="path54"
             style="fill:#ffffff;fill-opacity:1;fill-rule:nonzero;stroke:none"
             d="m 0,0 -3.417,2.141 2.194,3.503 -0.084,0.052 C -4.561,3.929 -7.838,4.198 -11,6.179 c -5.809,3.64 -5.515,8.098 -2.543,12.839 l 9.102,14.523 3.629,-2.276 -9.368,-14.952 c -1.688,-2.69 -1.075,-5.511 1.701,-7.25 4.399,-2.758 8.381,-1.15 10.869,2.823 l 7.819,12.473 3.629,-2.276 z" /></g><g
           transform="translate(179.6611,101.3242)"
           id="g56"><path
             id="path58"
             style="fill:#ffffff;fill-opacity:1;fill-rule:nonzero;stroke:none"
             d="m 0,0 3.629,-2.274 -19.112,-30.497 -3.63,2.275 z" /></g><g
           transform="translate(190.6333,67.8555)"
           id="g60"><path
             id="path62"
             style="fill:#ffffff;fill-opacity:1;fill-rule:nonzero;stroke:none"
             d="m 0,0 c -2.053,-0.142 -4.812,1.53 -7.515,2.627 -2.658,1.073 -5.246,1.504 -6.931,-1.187 -1.5,-2.391 0.016,-4.531 2.236,-5.923 4.784,-2.997 8.624,-1.24 9.881,0.768 z m -1.199,-15.014 c -0.883,0.018 -1.828,0.314 -2.98,1.035 -1.88,1.179 -2.432,2.954 -0.934,5.345 -3.48,-1.091 -6.84,-0.472 -9.916,1.455 -4.014,2.516 -6.178,6.372 -3.423,10.772 3.133,4.998 7.52,3.737 11.731,2.105 4.498,-1.747 7.755,-4.143 9.467,-1.409 1.982,3.16 -0.304,5.305 -2.609,6.751 -3.074,1.928 -5.929,2.406 -8.134,-0.733 l -3.629,2.276 c 3.639,5.334 9.072,4.604 13.984,1.525 C 6.33,11.62 10.083,8.019 6.843,2.851 L -0.276,-8.512 c -1.073,-1.708 -1.553,-2.476 -0.401,-3.198 0.3,-0.188 0.669,-0.36 1.244,-0.484 z" /></g><g
           transform="translate(206.4717,72.8037)"
           id="g64"><path
             id="path66"
             style="fill:#ffffff;fill-opacity:1;fill-rule:nonzero;stroke:none"
             d="M 0,0 3.417,-2.144 0.501,-6.798 0.585,-6.852 c 3.974,2.448 7.505,2.672 11.355,0.081 l -2.408,-3.843 c -5.854,3.668 -10.079,1.675 -13.585,-3.921 l -6.156,-9.824 -3.629,2.276 z" /></g></g></g></g></svg>