<?xml version="1.0" encoding="utf-8"?>
<!-- Generator: Adobe Illustrator 16.0.0, SVG Export Plug-In . SVG Version: 6.00 Build 0)  -->
<!DOCTYPE svg PUBLIC "-//W3C//DTD SVG 1.1//EN" "http://www.w3.org/Graphics/SVG/1.1/DTD/svg11.dtd">
<svg version="1.1" id="Layer_1" xmlns="http://www.w3.org/2000/svg" xmlns:xlink="http://www.w3.org/1999/xlink" x="0px" y="0px"
	 width="45px" height="45px" viewBox="0 0 45 45" enable-background="new 0 0 45 45" xml:space="preserve">
<circle fill-rule="evenodd" clip-rule="evenodd" fill="none" stroke="#000000" stroke-width="3" cx="22.831" cy="22.83" r="20.503"/>
<path fill-rule="evenodd" clip-rule="evenodd" fill="#010101" stroke="#000000" d="M23.891,6.695c0-0.12-0.213-0.216-0.475-0.216
	h-1.33c-0.263,0-0.476,0.097-0.476,0.216V12.5c0,0.12,0.213,0.217,0.476,0.217h1.33c0.262,0,0.475-0.097,0.475-0.217V6.695z"/>
<path fill-rule="evenodd" clip-rule="evenodd" fill="#010101" stroke="#000000" d="M12.483,10.362
	c-0.085-0.085-0.303-0.003-0.489,0.182l-0.94,0.94c-0.185,0.186-0.268,0.404-0.182,0.489l4.104,4.104
	c0.084,0.085,0.303,0.003,0.489-0.183l0.94-0.94c0.185-0.186,0.268-0.404,0.182-0.489L12.483,10.362z"/>
<path fill-rule="evenodd" clip-rule="evenodd" fill="#010101" stroke="#000000" d="M23.703,23.564
	c-0.239,0.24-0.584,0.283-0.77,0.098l-0.94-0.94c-0.186-0.185-0.141-0.53,0.098-0.77l11.63-11.63c0.24-0.24,0.584-0.284,0.77-0.098
	l0.94,0.939c0.187,0.186,0.142,0.531-0.098,0.77L23.703,23.564z"/>
<path fill-rule="evenodd" clip-rule="evenodd" fill="#010101" stroke="#000000" d="M11.916,23.479c0.12,0,0.218-0.212,0.218-0.475
	v-1.329c0-0.263-0.098-0.475-0.218-0.475H6.112c-0.12,0-0.216,0.212-0.216,0.475v1.329c0,0.263,0.096,0.475,0.216,0.475H11.916z"/>
<path fill-rule="evenodd" clip-rule="evenodd" fill="#010101" stroke="#000000" d="M39.593,23.479c0.12,0,0.217-0.212,0.217-0.475
	v-1.329c0-0.263-0.097-0.475-0.217-0.475h-5.804c-0.12,0-0.216,0.212-0.216,0.475v1.329c0,0.263,0.096,0.475,0.216,0.475H39.593z"/>
</svg>
